<mxfile host="Electron" agent="Mozilla/5.0 (X11; Linux x86_64) AppleWebKit/537.36 (KHTML, like Gecko) draw.io/24.7.17 Chrome/128.0.6613.186 Electron/32.2.5 Safari/537.36" version="24.7.17">
  <diagram name="Page-1" id="kRS0Gsefh2wIKQmIbZpZ">
    <mxGraphModel dx="754" dy="811" grid="1" gridSize="10" guides="1" tooltips="1" connect="1" arrows="1" fold="1" page="1" pageScale="1" pageWidth="850" pageHeight="1100" math="0" shadow="0">
      <root>
        <mxCell id="0" />
        <mxCell id="1" parent="0" />
        <mxCell id="TK-2w0dt3o5S0U0w1zFx-3" value="" style="edgeStyle=orthogonalEdgeStyle;rounded=0;orthogonalLoop=1;jettySize=auto;html=1;" edge="1" parent="1" source="TK-2w0dt3o5S0U0w1zFx-1" target="TK-2w0dt3o5S0U0w1zFx-2">
          <mxGeometry relative="1" as="geometry" />
        </mxCell>
        <mxCell id="TK-2w0dt3o5S0U0w1zFx-1" value="start" style="ellipse;whiteSpace=wrap;html=1;" vertex="1" parent="1">
          <mxGeometry x="360" y="80" width="120" height="80" as="geometry" />
        </mxCell>
        <mxCell id="TK-2w0dt3o5S0U0w1zFx-5" value="" style="edgeStyle=orthogonalEdgeStyle;rounded=0;orthogonalLoop=1;jettySize=auto;html=1;" edge="1" parent="1" source="TK-2w0dt3o5S0U0w1zFx-2" target="TK-2w0dt3o5S0U0w1zFx-4">
          <mxGeometry relative="1" as="geometry" />
        </mxCell>
        <mxCell id="TK-2w0dt3o5S0U0w1zFx-2" value="int n" style="rounded=1;whiteSpace=wrap;html=1;" vertex="1" parent="1">
          <mxGeometry x="360" y="200" width="120" height="60" as="geometry" />
        </mxCell>
        <mxCell id="TK-2w0dt3o5S0U0w1zFx-7" value="" style="edgeStyle=orthogonalEdgeStyle;rounded=0;orthogonalLoop=1;jettySize=auto;html=1;" edge="1" parent="1" source="TK-2w0dt3o5S0U0w1zFx-4" target="TK-2w0dt3o5S0U0w1zFx-6">
          <mxGeometry relative="1" as="geometry" />
        </mxCell>
        <mxCell id="TK-2w0dt3o5S0U0w1zFx-4" value="enter n" style="shape=parallelogram;perimeter=parallelogramPerimeter;whiteSpace=wrap;html=1;fixedSize=1;" vertex="1" parent="1">
          <mxGeometry x="360" y="300" width="120" height="60" as="geometry" />
        </mxCell>
        <mxCell id="TK-2w0dt3o5S0U0w1zFx-9" value="" style="edgeStyle=orthogonalEdgeStyle;rounded=0;orthogonalLoop=1;jettySize=auto;html=1;" edge="1" parent="1" source="TK-2w0dt3o5S0U0w1zFx-6" target="TK-2w0dt3o5S0U0w1zFx-8">
          <mxGeometry relative="1" as="geometry" />
        </mxCell>
        <mxCell id="TK-2w0dt3o5S0U0w1zFx-6" value="print n * 2 % 3" style="shape=parallelogram;perimeter=parallelogramPerimeter;whiteSpace=wrap;html=1;fixedSize=1;" vertex="1" parent="1">
          <mxGeometry x="360" y="400" width="120" height="60" as="geometry" />
        </mxCell>
        <mxCell id="TK-2w0dt3o5S0U0w1zFx-8" value="end" style="ellipse;whiteSpace=wrap;html=1;" vertex="1" parent="1">
          <mxGeometry x="360" y="500" width="120" height="80" as="geometry" />
        </mxCell>
      </root>
    </mxGraphModel>
  </diagram>
</mxfile>
